              <svg
                id="Capa_1"
                data-name="Capa 1"
                xmlns="http://www.w3.org/2000/svg"
                viewBox="0 0 283.46 38.93"
              >
                <defs>
                  <style>
                    .cls-1 {
                      fill: #211516;
                    }
                    .cls-2 {
                      fill: #fff;
                    }
                  </style>
                </defs>
                <path
                  class="cls-1"
                  d="M150.19,21.05v2.5h4.25v2.07h-4.25v4.82h-2.35V18.9h7.41v2.15Z"
                  transform="translate(-12.37 -12.51)"
                />
                <path
                  class="cls-1"
                  d="M167.57,24.67a6.82,6.82,0,0,1-1.27,4.51,4.56,4.56,0,0,1-3.69,1.5,4.42,4.42,0,0,1-3.76-1.58,7.12,7.12,0,0,1-1.21-4.43,7.13,7.13,0,0,1,1.21-4.44,5.3,5.3,0,0,1,7.53,0A7.19,7.19,0,0,1,167.57,24.67Zm-2.42,0a5.85,5.85,0,0,0-.58-3,2.53,2.53,0,0,0-3.92,0,5.85,5.85,0,0,0-.58,3,5.85,5.85,0,0,0,.58,3,2.15,2.15,0,0,0,2,.93,2.13,2.13,0,0,0,2-.93A5.85,5.85,0,0,0,165.15,24.67Z"
                  transform="translate(-12.37 -12.51)"
                />
                <path
                  class="cls-1"
                  d="M175.75,21.05v9.39H173.4V21.05h-3.55V18.9h9.45v2.15Z"
                  transform="translate(-12.37 -12.51)"
                />
                <path
                  class="cls-1"
                  d="M191.5,24.67a6.82,6.82,0,0,1-1.27,4.51,4.58,4.58,0,0,1-3.7,1.5,4.45,4.45,0,0,1-3.76-1.58,7.18,7.18,0,0,1-1.2-4.43,7.19,7.19,0,0,1,1.2-4.44,5.31,5.31,0,0,1,7.54,0A7.26,7.26,0,0,1,191.5,24.67Zm-2.42,0a6,6,0,0,0-.58-3,2.54,2.54,0,0,0-3.93,0,6,6,0,0,0-.58,3,5.84,5.84,0,0,0,.59,3,2.53,2.53,0,0,0,3.92,0A6,6,0,0,0,189.08,24.67Z"
                  transform="translate(-12.37 -12.51)"
                />
                <path
                  class="cls-1"
                  d="M202.38,22.15a2.78,2.78,0,0,0-1.07-1.06,3.35,3.35,0,0,0-1.6-.34,2.55,2.55,0,0,0-2.27,1,5.27,5.27,0,0,0-.71,3,4.78,4.78,0,0,0,.7,2.9,2.6,2.6,0,0,0,2.23.92,4.81,4.81,0,0,0,2.15-.48V26.32h-2.25V24.25h4.61v5.1a6.3,6.3,0,0,1-2,1,8.13,8.13,0,0,1-2.45.37,5.42,5.42,0,0,1-4.07-1.41,6.29,6.29,0,0,1-1.36-4.5q0-6.1,5.37-6.11a6.58,6.58,0,0,1,2.73.53,3.85,3.85,0,0,1,1.78,1.54Z"
                  transform="translate(-12.37 -12.51)"
                />
                <path
                  class="cls-1"
                  d="M214.23,30.44l-2.94-4.37H210.1v4.37h-2.35V18.9h4.19a5.37,5.37,0,0,1,3.26.8,3.15,3.15,0,0,1,1,2.63,4,4,0,0,1-.62,2.35,2.82,2.82,0,0,1-1.76,1.12l3.08,4.64Zm-.39-8a1.34,1.34,0,0,0-.44-1.18,2.75,2.75,0,0,0-1.48-.3H210.1V24h1.72a3.83,3.83,0,0,0,1.22-.15,1.1,1.1,0,0,0,.61-.47A1.89,1.89,0,0,0,213.84,22.43Z"
                  transform="translate(-12.37 -12.51)"
                />
                <path
                  class="cls-1"
                  d="M219.2,30.44,223,18.9h3.06l3.82,11.54h-2.41l-.76-2.34h-4.44l-.75,2.34ZM223,26h3.11l-1.55-4.77Z"
                  transform="translate(-12.37 -12.51)"
                />
                <path
                  class="cls-1"
                  d="M235,21.05v2.5h4.25v2.07H235v4.82h-2.35V18.9h7.42v2.15Z"
                  transform="translate(-12.37 -12.51)"
                />
                <path
                  class="cls-1"
                  d="M248.39,30.44h-5.57V28.63h1.61V20.71h-1.61V18.9h5.57v1.81h-1.6v7.92h1.6Z"
                  transform="translate(-12.37 -12.51)"
                />
                <path
                  class="cls-1"
                  d="M251,30.44l3.81-11.54h3.06l3.83,11.54h-2.41l-.77-2.34H254l-.75,2.34Zm3.75-4.4h3.1l-1.54-4.77Z"
                  transform="translate(-12.37 -12.51)"
                />
                <path
                  class="cls-1"
                  d="M174.39,45.42l3.82-11.53h3.06l3.82,11.53h-2.4l-.77-2.34h-4.44l-.75,2.34Zm3.75-4.4h3.11l-1.55-4.76Z"
                  transform="translate(-12.37 -12.51)"
                />
                <path
                  class="cls-1"
                  d="M202.6,43.51a4.49,4.49,0,0,1-1.82,1.63,6,6,0,0,1-2.65.52c-3.58,0-5.36-2-5.36-6a6.47,6.47,0,0,1,1.36-4.54A5.05,5.05,0,0,1,198,33.65a5.83,5.83,0,0,1,2.76.57,4.16,4.16,0,0,1,1.63,1.5l-1.83,1.41a3.84,3.84,0,0,0-.73-.87,2.51,2.51,0,0,0-.76-.4,3.72,3.72,0,0,0-1-.13,2.6,2.6,0,0,0-2.15.91,4.76,4.76,0,0,0-.75,3,5.13,5.13,0,0,0,.7,3,2.53,2.53,0,0,0,2.22,1,2.82,2.82,0,0,0,1.6-.39,4.24,4.24,0,0,0,1-1Z"
                  transform="translate(-12.37 -12.51)"
                />
                <path
                  class="cls-1"
                  d="M204.73,45.42l3.81-11.53h3.06l3.83,11.53H213l-.77-2.34h-4.44l-.75,2.34Zm3.75-4.4h3.1L210,36.26Z"
                  transform="translate(-12.37 -12.51)"
                />
                <path
                  class="cls-1"
                  d="M222.13,36v9.38h-2.35V36h-3.55V33.89h9.45V36Z"
                  transform="translate(-12.37 -12.51)"
                />
                <path
                  class="cls-1"
                  d="M226.49,45.42l3.82-11.53h3.06l3.82,11.53h-2.4L234,43.08h-4.44l-.75,2.34Zm3.75-4.4h3.11l-1.55-4.76Z"
                  transform="translate(-12.37 -12.51)"
                />
                <path
                  class="cls-1"
                  d="M240,45.42V33.89h2.35v9.38h4.85v2.15Z"
                  transform="translate(-12.37 -12.51)"
                />
                <path
                  class="cls-1"
                  d="M259.27,40.61a5.65,5.65,0,0,1-1.1,3.89,6.21,6.21,0,0,1-7.27,0,5.58,5.58,0,0,1-1.11-3.9V33.89h2.35v6.55a6.1,6.1,0,0,0,.22,1.85,1.79,1.79,0,0,0,.72,1,2.68,2.68,0,0,0,1.43.32,2.22,2.22,0,0,0,1.88-.71,4.2,4.2,0,0,0,.53-2.42V33.89h2.35Z"
                  transform="translate(-12.37 -12.51)"
                />
                <path
                  class="cls-1"
                  d="M269.48,45.42l-4.2-8.24v8.24H263V33.89h3l3.91,7.77V33.89h2.3V45.42Z"
                  transform="translate(-12.37 -12.51)"
                />
                <path
                  class="cls-1"
                  d="M281,41v4.4h-2.37V41.07L275,33.89h2.57l2.25,4.82,2.3-4.82h2.47Z"
                  transform="translate(-12.37 -12.51)"
                />
                <path
                  class="cls-1"
                  d="M285.13,45.42,289,33.89H292l3.82,11.53h-2.41l-.76-2.34h-4.44l-.76,2.34Zm3.75-4.4H292l-1.55-4.76Z"
                  transform="translate(-12.37 -12.51)"
                />
                <rect class="cls-1" width="127.47" height="38.93" />
                <path
                  class="cls-2"
                  d="M53.44,30.1l3.19-9.63h2.55l3.2,9.63h-2l-.64-2H56l-.62,2Zm3.13-3.67h2.6l-1.3-4Z"
                  transform="translate(-12.37 -12.51)"
                />
                <path
                  class="cls-2"
                  d="M66.17,30.1V20.47h2v7.84h4V30.1Z"
                  transform="translate(-12.37 -12.51)"
                />
                <path
                  class="cls-2"
                  d="M75.4,30.1l3.19-9.63h2.55l3.2,9.63h-2l-.64-2H78l-.62,2Zm3.13-3.67h2.6l-1.3-4Z"
                  transform="translate(-12.37 -12.51)"
                />
                <path
                  class="cls-2"
                  d="M95.8,27.31a2.35,2.35,0,0,1-1,2.12A4.86,4.86,0,0,1,92,30.1H88.42V20.47h3.4a4.94,4.94,0,0,1,2.66.54,1.92,1.92,0,0,1,.8,1.71,2.3,2.3,0,0,1-.44,1.45,2.23,2.23,0,0,1-1.36.75,2.86,2.86,0,0,1,1.77.76A2.3,2.3,0,0,1,95.8,27.31Zm-2.51-4.16a.8.8,0,0,0-.4-.77,2.84,2.84,0,0,0-1.25-.21H90.38v2.07h1.2A2.68,2.68,0,0,0,92.87,24,.91.91,0,0,0,93.29,23.15Zm.5,4a1,1,0,0,0-.43-.92A3.48,3.48,0,0,0,91.71,26H90.38v2.41h1A7.1,7.1,0,0,0,93,28.25a1.15,1.15,0,0,0,.64-.37A1.25,1.25,0,0,0,93.79,27.14Z"
                  transform="translate(-12.37 -12.51)"
                />
                <path
                  class="cls-2"
                  d="M100.31,30.1V20.47h6.26V22.2h-4.3v2.05h3.63V26h-3.63v2.32h4.3V30.1Z"
                  transform="translate(-12.37 -12.51)"
                />
                <path
                  class="cls-2"
                  d="M116.58,30.1l-2.46-3.64h-1V30.1h-2V20.47h3.51a4.5,4.5,0,0,1,2.72.66,2.63,2.63,0,0,1,.86,2.2,3.37,3.37,0,0,1-.52,2,2.36,2.36,0,0,1-1.47.94l2.57,3.87Zm-.32-6.69a1.12,1.12,0,0,0-.38-1,2.36,2.36,0,0,0-1.23-.25h-1.52v2.57h1.44a3.37,3.37,0,0,0,1-.12,1,1,0,0,0,.51-.39A1.72,1.72,0,0,0,116.26,23.41Z"
                  transform="translate(-12.37 -12.51)"
                />
                <path
                  class="cls-2"
                  d="M128.39,30.1l-3.51-6.88V30.1H123V20.47h2.55L128.77,27V20.47h1.93V30.1Z"
                  transform="translate(-12.37 -12.51)"
                />
              </svg>