  <svg
    width="26"
    height="26"
    viewBox="0 0 34 34"
    fill="none"
    xmlns="http://www.w3.org/2000/svg"
    >
    <path
        d="M17 8.5C15.9493 8.5 14.9222 8.81157 14.0485 9.39532C13.1749 9.97906 12.494 10.8088 12.0919 11.7795C11.6898 12.7502 11.5846 13.8184 11.7896 14.8489C11.9946 15.8794 12.5005 16.826 13.2435 17.569C13.9865 18.312 14.9331 18.8179 15.9636 19.0229C16.9941 19.2279 18.0623 19.1227 19.033 18.7206C20.0037 18.3185 20.8334 17.6376 21.4172 16.764C22.0009 15.8903 22.3125 14.8632 22.3125 13.8125C22.3125 12.4035 21.7528 11.0523 20.7565 10.056C19.7602 9.05971 18.409 8.5 17 8.5ZM17 17C16.3696 17 15.7533 16.8131 15.2291 16.4628C14.7049 16.1126 14.2964 15.6147 14.0551 15.0323C13.8139 14.4499 13.7508 13.809 13.8737 13.1906C13.9967 12.5723 14.3003 12.0044 14.7461 11.5586C15.1919 11.1128 15.7598 10.8092 16.3781 10.6862C16.9965 10.5633 17.6374 10.6264 18.2198 10.8676C18.8022 11.1089 19.3001 11.5174 19.6503 12.0416C20.0006 12.5658 20.1875 13.1821 20.1875 13.8125C20.1875 14.6579 19.8517 15.4686 19.2539 16.0664C18.6561 16.6642 17.8454 17 17 17ZM17 2.125C13.9014 2.12852 10.9306 3.361 8.73957 5.55207C6.5485 7.74314 5.31602 10.7139 5.3125 13.8125C5.3125 17.9828 7.23961 22.4028 10.8906 26.5957C12.5312 28.4904 14.3776 30.1964 16.3957 31.6824C16.5744 31.8076 16.7872 31.8747 17.0053 31.8747C17.2234 31.8747 17.4363 31.8076 17.6149 31.6824C19.6293 30.1958 21.4722 28.4898 23.1094 26.5957C26.7551 22.4028 28.6875 17.9828 28.6875 13.8125C28.684 10.7139 27.4515 7.74314 25.2604 5.55207C23.0694 3.361 20.0986 2.12852 17 2.125ZM17 29.4844C14.8046 27.7578 7.4375 21.416 7.4375 13.8125C7.4375 11.2764 8.44497 8.84411 10.2383 7.05079C12.0316 5.25747 14.4639 4.25 17 4.25C19.5361 4.25 21.9684 5.25747 23.7617 7.05079C25.555 8.84411 26.5625 11.2764 26.5625 13.8125C26.5625 21.4134 19.1954 27.7578 17 29.4844Z"
        fill="#fff"
    />
    </svg>