<svg width="30" height="30" viewBox="0 0 30 30" fill="none" xmlns="http://www.w3.org/2000/svg">
<path d="M15.1375 19.2375L10.2875 24.0875C9.7003 24.6542 8.91607 24.9709 8.1 24.9709C7.28393 24.9709 6.4997 24.6542 5.9125 24.0875C5.62451 23.8006 5.39599 23.4597 5.24007 23.0844C5.08414 22.709 5.00388 22.3065 5.00388 21.9C5.00388 21.4935 5.08414 21.091 5.24007 20.7156C5.39599 20.3403 5.62451 19.9994 5.9125 19.7125L10.7625 14.8625C10.9979 14.6271 11.1301 14.3079 11.1301 13.975C11.1301 13.6421 10.9979 13.3229 10.7625 13.0875C10.5271 12.8521 10.2079 12.7199 9.875 12.7199C9.54212 12.7199 9.22288 12.8521 8.9875 13.0875L4.1375 17.95C3.16045 19.0135 2.63203 20.4133 2.66259 21.8572C2.69316 23.301 3.28035 24.6773 4.30154 25.6985C5.32273 26.7196 6.69895 27.3068 8.14281 27.3374C9.58666 27.368 10.9865 26.8396 12.05 25.8625L16.9125 21.0125C17.029 20.896 17.1215 20.7576 17.1846 20.6053C17.2477 20.453 17.2801 20.2898 17.2801 20.125C17.2801 19.9602 17.2477 19.797 17.1846 19.6447C17.1215 19.4924 17.029 19.354 16.9125 19.2375C16.796 19.121 16.6576 19.0285 16.5053 18.9654C16.353 18.9023 16.1898 18.8699 16.025 18.8699C15.8602 18.8699 15.697 18.9023 15.5447 18.9654C15.3924 19.0285 15.254 19.121 15.1375 19.2375ZM25.8625 4.1375C24.811 3.09251 23.3887 2.50599 21.9062 2.50599C20.4238 2.50599 19.0015 3.09251 17.95 4.1375L13.0875 8.9875C12.971 9.10405 12.8785 9.24241 12.8154 9.39469C12.7524 9.54697 12.7199 9.71018 12.7199 9.875C12.7199 10.0398 12.7524 10.203 12.8154 10.3553C12.8785 10.5076 12.971 10.646 13.0875 10.7625C13.204 10.879 13.3424 10.9715 13.4947 11.0346C13.647 11.0976 13.8102 11.1301 13.975 11.1301C14.1398 11.1301 14.303 11.0976 14.4553 11.0346C14.6076 10.9715 14.746 10.879 14.8625 10.7625L19.7125 5.9125C20.2997 5.34578 21.0839 5.02907 21.9 5.02907C22.7161 5.02907 23.5003 5.34578 24.0875 5.9125C24.3755 6.19936 24.604 6.54026 24.7599 6.91565C24.9159 7.29104 24.9961 7.69352 24.9961 8.1C24.9961 8.50648 24.9159 8.90896 24.7599 9.28435C24.604 9.65974 24.3755 10.0006 24.0875 10.2875L19.2375 15.1375C19.1203 15.2537 19.0273 15.392 18.9639 15.5443C18.9004 15.6966 18.8678 15.86 18.8678 16.025C18.8678 16.19 18.9004 16.3534 18.9639 16.5057C19.0273 16.658 19.1203 16.7963 19.2375 16.9125C19.3537 17.0297 19.492 17.1227 19.6443 17.1861C19.7966 17.2496 19.96 17.2822 20.125 17.2822C20.29 17.2822 20.4534 17.2496 20.6057 17.1861C20.758 17.1227 20.8963 17.0297 21.0125 16.9125L25.8625 12.05C26.9075 10.9985 27.494 9.57622 27.494 8.09375C27.494 6.61128 26.9075 5.18902 25.8625 4.1375ZM11.0375 18.9625C11.1543 19.0784 11.2928 19.17 11.4451 19.2322C11.5974 19.2944 11.7605 19.326 11.925 19.325C12.0895 19.326 12.2526 19.2944 12.4049 19.2322C12.5572 19.17 12.6957 19.0784 12.8125 18.9625L18.9625 12.8125C19.1979 12.5771 19.3301 12.2579 19.3301 11.925C19.3301 11.5921 19.1979 11.2729 18.9625 11.0375C18.7271 10.8021 18.4079 10.6699 18.075 10.6699C17.7421 10.6699 17.4229 10.8021 17.1875 11.0375L11.0375 17.1875C10.9203 17.3037 10.8273 17.442 10.7639 17.5943C10.7004 17.7466 10.6678 17.91 10.6678 18.075C10.6678 18.24 10.7004 18.4034 10.7639 18.5557C10.8273 18.708 10.9203 18.8463 11.0375 18.9625Z" fill="#11212d"/>
</svg>
