<svg width="30" height="30" viewBox="0 0 30 30" xmlns="http://www.w3.org/2000/svg" id="camera">
                <g clip-path="url(#clip0_677_636)">
                <path d="M26.8116 5.11535H22.5778L20.4881 1.97859C20.4073 1.85761 20.298 1.75846 20.1697 1.68996C20.0414 1.62146 19.8982 1.58572 19.7528 1.58594H10.341C10.1956 1.58572 10.0523 1.62146 9.92406 1.68996C9.79577 1.75846 9.68641 1.85761 9.6057 1.97859L7.51452 5.11535H3.28217C2.42412 5.11535 1.60121 5.45621 0.99447 6.06295C0.387735 6.66968 0.046875 7.49259 0.046875 8.35064V24.8212C0.046875 25.6793 0.387735 26.5022 0.99447 27.1089C1.60121 27.7157 2.42412 28.0565 3.28217 28.0565H26.8116C27.6696 28.0565 28.4925 27.7157 29.0993 27.1089C29.706 26.5022 30.0469 25.6793 30.0469 24.8212V8.35064C30.0469 7.49259 29.706 6.66968 29.0993 6.06295C28.4925 5.45621 27.6696 5.11535 26.8116 5.11535ZM28.2822 24.8212C28.2822 25.2113 28.1272 25.5853 27.8514 25.8611C27.5757 26.1369 27.2016 26.2918 26.8116 26.2918H3.28217C2.89214 26.2918 2.51809 26.1369 2.24231 25.8611C1.96652 25.5853 1.81158 25.2113 1.81158 24.8212V8.35064C1.81158 7.96062 1.96652 7.58657 2.24231 7.31078C2.51809 7.03499 2.89214 6.88006 3.28217 6.88006H7.98805C8.13348 6.88027 8.2767 6.84454 8.40499 6.77603C8.53327 6.70753 8.64263 6.60838 8.72335 6.48741L10.8131 3.35064H19.2792L21.3704 6.48741C21.4511 6.60838 21.5605 6.70753 21.6888 6.77603C21.817 6.84454 21.9603 6.88027 22.1057 6.88006H26.8116C27.2016 6.88006 27.5757 7.03499 27.8514 7.31078C28.1272 7.58657 28.2822 7.96062 28.2822 8.35064V24.8212ZM15.0469 9.82123C13.8253 9.82123 12.6311 10.1835 11.6154 10.8622C10.5997 11.5408 9.80804 12.5055 9.34056 13.6341C8.87308 14.7627 8.75076 16.0046 8.98908 17.2027C9.2274 18.4008 9.81566 19.5013 10.6795 20.3651C11.5432 21.2289 12.6438 21.8172 13.8419 22.0555C15.04 22.2938 16.2819 22.1715 17.4105 21.704C18.5391 21.2365 19.5037 20.4449 20.1824 19.4292C20.8611 18.4135 21.2233 17.2193 21.2233 15.9977C21.2233 14.3596 20.5726 12.7886 19.4143 11.6303C18.256 10.472 16.685 9.82123 15.0469 9.82123ZM15.0469 20.4095C14.1743 20.4095 13.3213 20.1507 12.5958 19.666C11.8703 19.1812 11.3049 18.4922 10.9709 17.686C10.637 16.8799 10.5497 15.9928 10.7199 15.137C10.8901 14.2812 11.3103 13.4951 11.9273 12.8781C12.5443 12.2611 13.3304 11.8409 14.1862 11.6707C15.042 11.5005 15.929 11.5878 16.7352 11.9218C17.5413 12.2557 18.2304 12.8211 18.7151 13.5467C19.1999 14.2722 19.4586 15.1251 19.4586 15.9977C19.4586 17.1678 18.9938 18.2899 18.1665 19.1173C17.3391 19.9447 16.2169 20.4095 15.0469 20.4095Z" fill="black"/>
                </g>
                <defs>
                <clipPath id="clip0_677_636">
                <rect width="30" height="30" fill="white"/>
                </clipPath>
                </defs>
              </svg>    