<svg width="20" height="20" viewBox="0 0 256 256" fill="none" xmlns="http://www.w3.org/2000/svg">
    <g clip-path="url(#clip0_436_434)">
    <path d="M117.16 -0.273437C118.328 -0.292229 118.328 -0.292229 119.52 -0.311401C136.219 -0.528138 152.06 -0.643017 168 5C168.69 5.23525 169.38 5.47051 170.09 5.71289C203.214 17.2328 229.975 41.6463 245.25 73.125C251.624 86.7701 256.052 102.073 256.273 117.16C256.292 118.328 256.292 118.328 256.311 119.52C256.528 136.219 256.643 152.06 251 168C250.647 169.035 250.647 169.035 250.287 170.09C238.767 203.214 214.354 229.975 182.875 245.25C169.23 251.624 153.927 256.052 138.84 256.273C137.672 256.292 137.672 256.292 136.481 256.311C119.781 256.528 103.94 256.643 88.0001 251C87.3103 250.765 86.6204 250.529 85.9097 250.287C52.7859 238.767 26.0252 214.354 10.7501 182.875C4.37586 169.23 -0.0521835 153.927 -0.273376 138.84C-0.285904 138.061 -0.298432 137.283 -0.31134 136.48C-0.528077 119.781 -0.642956 103.94 5.00006 88C5.23532 87.3102 5.47057 86.6204 5.71295 85.9097C17.2329 52.7858 41.6464 26.0252 73.1251 10.75C86.7702 4.3758 102.073 -0.0522445 117.16 -0.273437ZM131 28C128.475 31.6351 128.715 35.4686 128.733 39.7297C128.728 40.5129 128.724 41.2962 128.719 42.1031C128.706 44.7301 128.708 47.3569 128.71 49.9839C128.704 51.8663 128.697 53.7488 128.689 55.6313C128.671 60.747 128.667 65.8626 128.666 70.9784C128.664 75.2478 128.656 79.5172 128.649 83.7867C128.633 93.8589 128.628 103.931 128.629 114.003C128.631 124.396 128.61 134.789 128.578 145.182C128.552 154.102 128.541 163.023 128.542 171.944C128.543 177.273 128.537 182.601 128.516 187.93C128.497 192.942 128.496 197.954 128.511 202.965C128.513 204.804 128.508 206.644 128.496 208.483C128.481 210.994 128.49 213.505 128.506 216.016C128.495 216.743 128.485 217.47 128.474 218.219C128.543 223.258 129.858 226.105 133 230C137.097 232.988 141.428 232.067 146.246 231.594C172.673 227.414 197.079 211.53 212.766 190.188C229.808 166.178 236.204 138.161 231.406 109.102C228.101 90.8726 220.368 73.8736 208 60C207.365 59.2343 206.729 58.4686 206.074 57.6797C190.576 39.3547 167.489 27.8471 144 24C138.224 23.6844 135.508 24.2256 131 28Z" fill="white"/>
    </g>
</svg>