<svg
                      width="31"
                      height="23"
                      viewBox="0 0 31 23"
                      fill="none"
                      xmlns="http://www.w3.org/2000/svg"
                    >
                      <path
                        d="M8.4 4.864C8.448 4.832 8.64 4.816 8.976 4.816C9.328 4.816 9.528 4.832 9.576 4.864C9.624 4.88 9.672 4.912 9.72 4.96C9.752 5.008 10.608 7.592 12.288 12.712C13.984 17.864 14.84 20.448 14.856 20.464C14.92 20.56 15.152 20.616 15.552 20.632C15.712 20.648 16.056 20.656 16.584 20.656H17.208V21.328V22H16.992C17.008 22 16.44 21.984 15.288 21.952C14.312 21.936 13.272 21.936 12.168 21.952L10.248 22H9.984V21.328V20.656H10.368C11.232 20.656 11.76 20.608 11.952 20.512C11.984 20.48 12 20.448 12 20.416C12 20.448 11.848 19.976 11.544 19C11.272 18.184 11.104 17.664 11.04 17.44L10.992 17.296H8.28H5.592L5.184 18.52L4.776 19.816C4.76 19.944 4.816 20.072 4.944 20.2C5.216 20.456 5.672 20.608 6.312 20.656H6.576V21.328V22H6.36L4.8 21.952C3.872 21.936 3.032 21.936 2.28 21.952C1.4 21.984 0.952 22 0.936 22H0.768V21.328V20.656H1.008C1.52 20.656 1.984 20.6 2.4 20.488C2.896 20.328 3.2 20.12 3.312 19.864C3.328 19.832 4.16 17.336 5.808 12.376C7.408 7.512 8.224 5.04 8.256 4.96C8.304 4.912 8.352 4.88 8.4 4.864ZM9.408 12.52L8.304 9.112C8.304 9.128 7.552 11.392 6.048 15.904C6.048 15.936 6.792 15.952 8.28 15.952C9.784 15.952 10.536 15.944 10.536 15.928L9.408 12.52Z"
                        fill="#889096"
                      />
                      <path
                        d="M19.9375 0.579999C19.9975 0.539999 20.2375 0.519999 20.6575 0.519999C21.0975 0.519999 21.3475 0.539999 21.4075 0.579999C21.4675 0.599998 21.5275 0.639998 21.5875 0.699999C21.6275 0.759999 22.6975 3.99 24.7975 10.39C26.9175 16.83 27.9875 20.06 28.0075 20.08C28.0875 20.2 28.3775 20.27 28.8775 20.29C29.0775 20.31 29.5075 20.32 30.1675 20.32H30.9475V21.16V22H30.6775C30.6975 22 29.9875 21.98 28.5475 21.94C27.3275 21.92 26.0275 21.92 24.6475 21.94L22.2475 22H21.9175V21.16V20.32H22.3975C23.4775 20.32 24.1375 20.26 24.3775 20.14C24.4175 20.1 24.4375 20.06 24.4375 20.02C24.4375 20.06 24.2475 19.47 23.8675 18.25C23.5275 17.23 23.3175 16.58 23.2375 16.3L23.1775 16.12H19.7875H16.4275L15.9175 17.65L15.4075 19.27C15.3875 19.43 15.4575 19.59 15.6175 19.75C15.9575 20.07 16.5275 20.26 17.3275 20.32H17.6575V21.16V22H17.3875L15.4375 21.94C14.2775 21.92 13.2275 21.92 12.2875 21.94C11.1875 21.98 10.6275 22 10.6075 22H10.3975V21.16V20.32H10.6975C11.3375 20.32 11.9175 20.25 12.4375 20.11C13.0575 19.91 13.4375 19.65 13.5775 19.33C13.5975 19.29 14.6375 16.17 16.6975 9.97C18.6975 3.89 19.7175 0.799999 19.7575 0.699999C19.8175 0.639998 19.8775 0.599998 19.9375 0.579999ZM21.1975 10.15L19.8175 5.89C19.8175 5.91 18.8775 8.74 16.9975 14.38C16.9975 14.42 17.9275 14.44 19.7875 14.44C21.6675 14.44 22.6075 14.43 22.6075 14.41L21.1975 10.15Z"
                        fill="white"
                      />
                    </svg>