  <svg width="30" height="30" viewBox="0 0 30 30" fill="none" xmlns="http://www.w3.org/2000/svg">
                <path d="M25.3125 6.5625V5.625C25.3103 4.87974 25.0133 4.16563 24.4863 3.63865C23.9594 3.11168 23.2453 2.81466 22.5 2.8125H3.75C3.00474 2.81466 2.29063 3.11168 1.76365 3.63865C1.23668 4.16563 0.939664 4.87974 0.9375 5.625V20.625C0.939664 21.3703 1.23668 22.0844 1.76365 22.6113C2.29063 23.1383 3.00474 23.4353 3.75 23.4375H4.6875" stroke="#11212d" stroke-width="1.5" stroke-linejoin="round"/>
                <path d="M26.3678 7.5H8.31973C6.83147 7.5 5.625 8.70647 5.625 10.1947V24.4928C5.625 25.981 6.83147 27.1875 8.31973 27.1875H26.3678C27.856 27.1875 29.0625 25.981 29.0625 24.4928V10.1947C29.0625 8.70647 27.856 7.5 26.3678 7.5Z" stroke="#11212d" stroke-width="1.5" stroke-linejoin="round"/>
                <path d="M21.8498 14.6582C22.8455 14.6582 23.6527 13.8568 23.6527 12.8682C23.6527 11.8796 22.8455 11.0781 21.8498 11.0781C20.8541 11.0781 20.0469 11.8796 20.0469 12.8682C20.0469 13.8568 20.8541 14.6582 21.8498 14.6582Z" stroke="#11212d" stroke-width="1.5" stroke-miterlimit="10"/>
                <path d="M20.0479 21.8077L14.9414 16.7458C14.615 16.4232 14.1783 16.2366 13.7196 16.2234C13.2609 16.2102 12.8143 16.3716 12.4699 16.6749L5.625 22.7141M15.5408 27.1883L22.4895 20.2901C22.8092 19.9748 23.2344 19.789 23.6831 19.7688C24.1317 19.7486 24.5719 19.8953 24.9188 20.1805L29.0625 23.6089" stroke="#11212d" stroke-width="1.5" stroke-linecap="round" stroke-linejoin="round"/>
              </svg> 