<svg width="300" height="300" viewBox="0 0 300 300" fill="none" xmlns="http://www.w3.org/2000/svg">
<path d="M208.163 24.4898C226.025 24.4898 243.155 31.5853 255.785 44.2153C268.415 56.8453 275.51 73.9752 275.51 91.8367V208.163C275.51 226.025 268.415 243.155 255.785 255.785C243.155 268.415 226.025 275.51 208.163 275.51H91.8367C73.9752 275.51 56.8453 268.415 44.2153 255.785C31.5853 243.155 24.4898 226.025 24.4898 208.163V91.8367C24.4898 73.9752 31.5853 56.8453 44.2153 44.2153C56.8453 31.5853 73.9752 24.4898 91.8367 24.4898H208.163ZM208.163 0H91.8367C67.5025 0.0726762 44.1856 9.77164 26.9786 26.9786C9.77164 44.1856 0.0726762 67.5025 0 91.8367V208.163C0.0726762 232.498 9.77164 255.814 26.9786 273.021C44.1856 290.228 67.5025 299.927 91.8367 300H208.163C232.498 299.927 255.814 290.228 273.021 273.021C290.228 255.814 299.927 232.498 300 208.163V91.8367C299.927 67.5025 290.228 44.1856 273.021 26.9786C255.814 9.77164 232.498 0.0726762 208.163 0Z" fill="black"/>
<path d="M230.02 52.0408C226.551 52.0408 223.16 53.0695 220.275 54.9969C217.391 56.9243 215.142 59.6638 213.815 62.869C212.487 66.0742 212.14 69.601 212.817 73.0036C213.493 76.4062 215.164 79.5317 217.617 81.9848C220.07 84.4379 223.196 86.1085 226.598 86.7854C230.001 87.4622 233.528 87.1148 236.733 85.7872C239.938 84.4596 242.678 82.2113 244.605 79.3267C246.532 76.4422 247.561 73.0508 247.561 69.5816C247.561 67.2781 247.107 64.9972 246.226 62.869C245.344 60.7409 244.052 58.8072 242.424 57.1784C240.795 55.5495 238.861 54.2575 236.733 53.376C234.605 52.4945 232.324 52.0408 230.02 52.0408Z" fill="black"/>
<path d="M150.826 96.3366C161.533 96.3306 172.002 99.5004 180.907 105.445C189.812 111.39 196.754 119.842 200.854 129.733C204.954 139.624 206.028 150.509 203.941 161.01C201.854 171.512 196.698 181.158 189.127 188.729C181.556 196.3 171.91 201.456 161.408 203.543C150.907 205.63 140.022 204.556 130.131 200.456C120.24 196.356 111.788 189.414 105.843 180.509C99.8984 171.604 96.7285 161.135 96.7346 150.428C96.7588 136.09 102.466 122.346 112.605 112.207C122.743 102.068 136.488 96.3609 150.826 96.3366ZM150.826 71.8468C135.284 71.8771 120.099 76.5141 107.19 85.1719C94.2822 93.8296 84.2301 106.12 78.3045 120.488C72.3789 134.857 70.8457 150.66 73.8987 165.9C76.9517 181.14 84.4539 195.133 95.4571 206.111C106.46 217.089 120.471 224.558 135.718 227.576C150.965 230.593 166.764 229.023 181.12 223.064C195.475 217.105 207.741 207.024 216.369 194.095C224.996 181.167 229.598 165.971 229.592 150.428C229.588 140.095 227.546 129.863 223.584 120.319C219.622 110.775 213.817 102.105 206.502 94.8068C199.186 87.5082 190.503 81.7236 180.95 77.7839C171.397 73.8442 161.16 71.8267 150.826 71.8468Z" fill="black"/>
</svg>
