<svg width="21" height="21" viewBox="0 0 21 21" fill="none" xmlns="http://www.w3.org/2000/svg">
<path d="M17.1118 3.15816C19.2936 5.30071 20.3553 7.7509 20.4824 10.8431C20.2687 13.8766 19.1846 16.341 16.9297 18.381C14.5996 20.2125 12.0353 20.9497 9.07639 20.632C6.19301 20.0805 4.00686 18.8479 2.171 16.4765C0.722248 14.0728 0.181773 11.431 0.642617 8.66563C1.4291 5.64991 2.90401 3.6623 5.45704 1.90267C6.52366 1.35339 6.52366 1.35339 7.53825 1.06567C7.89882 0.962096 8.25939 0.858518 8.63088 0.751802C11.7359 0.520554 14.7116 1.0897 17.1118 3.15816ZM9.20321 2.32116C7.82841 3.76582 7.82841 3.76582 7.53825 5.66913C8.36241 5.66913 9.18656 5.66913 10.0357 5.66913C10.0357 4.5643 10.0357 3.45947 10.0357 2.32116C9.76098 2.32116 9.48626 2.32116 9.20321 2.32116ZM10.8682 2.32116C10.8682 3.42599 10.8682 4.53082 10.8682 5.66913C11.6923 5.66913 12.5165 5.66913 13.3656 5.66913C13.1172 4.27031 12.643 3.38232 11.7007 2.32116C11.4259 2.32116 11.1512 2.32116 10.8682 2.32116ZM5.87328 3.15816C5.19199 3.97842 5.19199 3.97842 4.62455 4.83214C5.17399 4.97024 5.72343 5.10835 6.28952 5.25064C6.42688 4.56012 6.56424 3.8696 6.70576 3.15816C6.43104 3.15816 6.15632 3.15816 5.87328 3.15816ZM14.1981 3.15816C14.3355 3.84867 14.4728 4.53919 14.6144 5.25064C15.1638 4.97443 15.7132 4.69822 16.2793 4.41364C15.7071 3.76846 15.7071 3.76846 15.0306 3.15816C14.7559 3.15816 14.4812 3.15816 14.1981 3.15816ZM3.37583 5.66913C2.47964 7.28351 1.96372 8.41083 2.1271 10.2726C3.22598 10.2726 4.32486 10.2726 5.45704 10.2726C5.45704 9.02966 5.45704 7.78672 5.45704 6.50613C4.42684 6.09181 4.42684 6.09181 3.37583 5.66913ZM17.1118 5.66913C16.2876 6.08344 16.2876 6.08344 15.4468 6.50613C15.4383 7.04991 15.4297 7.59369 15.4208 8.15396C15.416 8.45983 15.4112 8.76571 15.4062 9.08086C15.3613 9.86135 15.3613 9.86135 15.8631 10.2726C16.8342 10.2897 17.8057 10.2903 18.7768 10.2726C18.681 8.01656 18.681 8.01656 17.7102 6.08763C17.5127 5.94953 17.3152 5.81142 17.1118 5.66913ZM6.70576 6.92462C6.70576 8.02945 6.70576 9.13428 6.70576 10.2726C7.80464 10.2726 8.90352 10.2726 10.0357 10.2726C10.0357 9.16776 10.0357 8.06293 10.0357 6.92462C8.93682 6.92462 7.83794 6.92462 6.70576 6.92462ZM10.8682 6.92462C10.8682 8.02945 10.8682 9.13428 10.8682 10.2726C11.9671 10.2726 13.0659 10.2726 14.1981 10.2726C14.1981 9.16776 14.1981 8.06293 14.1981 6.92462C13.0992 6.92462 12.0004 6.92462 10.8682 6.92462ZM2.1271 11.1096C2.22286 13.3656 2.22286 13.3656 3.19372 15.2945C3.39118 15.4327 3.58863 15.5708 3.79207 15.713C4.34151 15.4368 4.89095 15.1606 5.45704 14.8761C5.45704 13.6331 5.45704 12.3902 5.45704 11.1096C4.35816 11.1096 3.25928 11.1096 2.1271 11.1096ZM6.70576 11.1096C6.70576 12.2144 6.70576 13.3192 6.70576 14.4576C7.80464 14.4576 8.90352 14.4576 10.0357 14.4576C10.0357 13.3527 10.0357 12.2479 10.0357 11.1096C8.93682 11.1096 7.83794 11.1096 6.70576 11.1096ZM10.8682 11.1096C10.8682 12.2144 10.8682 13.3192 10.8682 14.4576C11.9671 14.4576 13.0659 14.4576 14.1981 14.4576C14.1981 13.3527 14.1981 12.2479 14.1981 11.1096C13.0992 11.1096 12.0004 11.1096 10.8682 11.1096ZM15.4468 11.1096C15.4468 12.3525 15.4468 13.5955 15.4468 14.8761C16.477 15.2904 16.477 15.2904 17.5281 15.713C18.4242 14.0987 18.9402 12.9714 18.7768 11.1096C17.6779 11.1096 16.579 11.1096 15.4468 11.1096ZM7.53825 15.713C7.78669 17.1119 8.26086 17.9999 9.20321 19.061C9.47793 19.061 9.75265 19.061 10.0357 19.061C10.0357 17.9562 10.0357 16.8514 10.0357 15.713C9.21154 15.713 8.38738 15.713 7.53825 15.713ZM10.8682 15.713C10.8682 16.8179 10.8682 17.9227 10.8682 19.061C12.184 18.4877 12.5301 18.2286 13.3656 16.9685C13.3656 16.5542 13.3656 16.1399 13.3656 15.713C12.5415 15.713 11.7173 15.713 10.8682 15.713ZM5.45704 16.1315C5.18232 16.4077 4.9076 16.684 4.62455 16.9685C5.19683 17.6137 5.19683 17.6137 5.87328 18.224C6.148 18.224 6.42272 18.224 6.70576 18.224C6.5684 17.5335 6.43104 16.843 6.28952 16.1315C6.0148 16.1315 5.74008 16.1315 5.45704 16.1315ZM14.6144 16.1315C14.477 16.8221 14.3396 17.5126 14.1981 18.224C15.4976 17.6762 15.4976 17.6762 16.2793 16.55C15.7299 16.4119 15.1804 16.2738 14.6144 16.1315Z" fill="white"/>
</svg>
