<svg width="20" height="20" viewBox="0 0 20 20" fill="none" xmlns="http://www.w3.org/2000/svg">
<path d="M19.951 4.31096C19.8679 3.89088 19.6805 3.49385 19.407 3.16006C19.3515 3.08998 19.2934 3.02764 19.2299 2.96439C18.7434 2.47533 18.0667 2.19482 17.3732 2.19482H2.62672C1.92551 2.19482 1.26602 2.46826 0.769727 2.96467C0.706914 3.02732 0.648672 3.09029 0.591016 3.1626C0.31875 3.49498 0.132148 3.89146 0.0510156 4.31213C0.0171094 4.47732 0 4.6485 0 4.82166V15.1786C0 15.5389 0.0732031 15.8897 0.21832 16.2233C0.343906 16.5195 0.534453 16.8003 0.76957 17.0353C0.828789 17.0943 0.887617 17.1487 0.95043 17.2017C1.42051 17.591 2.01574 17.8052 2.62672 17.8052H17.3732C17.9881 17.8052 18.5828 17.5901 19.0516 17.1974C19.1143 17.1467 19.1723 17.0934 19.2304 17.0353C19.4577 16.8083 19.6383 16.5474 19.7682 16.2598L19.7853 16.2188C19.9277 15.8915 20 15.5418 20 15.1786V4.82166C20 4.65076 19.9835 4.47846 19.951 4.31096ZM1.36027 3.87123C1.39742 3.81686 1.44484 3.76104 1.50535 3.70006C1.8057 3.39986 2.20402 3.23467 2.62668 3.23467H17.3732C17.7995 3.23467 18.198 3.40014 18.495 3.70064C18.5463 3.75248 18.5953 3.81002 18.638 3.86752L18.7508 4.01908L10.8797 10.8791C10.637 11.0918 10.3246 11.2089 9.99988 11.2089C9.67836 11.2089 9.36621 11.0921 9.12066 10.8794L1.25742 4.02104L1.36027 3.87123ZM1.04512 15.27C1.04086 15.2418 1.03988 15.2105 1.03988 15.1786V5.03611L7.14809 10.3647L1.10152 15.6366L1.04512 15.27ZM18.1601 16.5562C17.9237 16.6926 17.6514 16.765 17.3732 16.765H2.62672C2.34832 16.765 2.07617 16.6926 1.83992 16.5562L1.59273 16.4129L7.84023 10.9685L8.52492 11.564C8.93563 11.9206 9.45937 12.1171 9.99996 12.1171C10.5425 12.1171 11.0671 11.9206 11.4776 11.564L12.162 10.9682L18.4073 16.4133L18.1601 16.5562ZM18.9598 15.1786C18.9598 15.2099 18.9593 15.241 18.9553 15.2686L18.9012 15.6386L12.852 10.3675L18.9598 5.03869V15.1786Z" fill="#fff"/>
</svg>
