    <svg
        width="22"
        height="18"
        viewBox="0 0 22 18"
        fill="none"
        xmlns="http://www.w3.org/2000/svg"
      >
        <path
          d="M0.842789 8.99915C0.842789 9.32238 0.971193 9.63237 1.19975 9.86093C1.42831 10.0895 1.73831 10.2179 2.06154 10.2179H16.9912L11.7587 15.4494C11.5298 15.6783 11.4011 15.9889 11.4011 16.3127C11.4011 16.6365 11.5298 16.947 11.7587 17.1759C11.9877 17.4049 12.2982 17.5335 12.622 17.5335C12.9458 17.5335 13.2563 17.4049 13.4853 17.1759L20.7978 9.86344C20.9114 9.75022 21.0016 9.61567 21.0631 9.46753C21.1246 9.31939 21.1562 9.16057 21.1562 9.00016C21.1562 8.83976 21.1246 8.68093 21.0631 8.53279C21.0016 8.38465 20.9114 8.25011 20.7978 8.13688L13.4853 0.824379C13.3719 0.711012 13.2373 0.621084 13.0892 0.559729C12.9411 0.498375 12.7823 0.466797 12.622 0.466797C12.4617 0.466797 12.3029 0.498375 12.1548 0.559729C12.0067 0.621084 11.8721 0.711012 11.7587 0.824379C11.6454 0.937747 11.5554 1.07233 11.4941 1.22046C11.4327 1.36858 11.4011 1.52733 11.4011 1.68766C11.4011 1.84799 11.4327 2.00674 11.4941 2.15487C11.5554 2.30299 11.6454 2.43757 11.7587 2.55094L16.9912 7.7804H2.06154C1.73831 7.7804 1.42831 7.9088 1.19975 8.13736C0.971193 8.36592 0.842789 8.67591 0.842789 8.99915Z"
          fill="#11212d"
        />
      </svg>