  <svg
                  width="24"
                  height="24"
                  viewBox="0 0 24 24"
                  fill="none"
                  xmlns="http://www.w3.org/2000/svg"
                >
                  <g clip-path="url(#clip0_174_132)">
                    <path
                      fill-rule="evenodd"
                      clip-rule="evenodd"
                      d="M16.9384 19.3615C16.9384 19.8205 16.7561 20.2608 16.4315 20.5854C16.1069 20.9099 15.6667 21.0923 15.2076 21.0923C14.7486 21.0923 14.3084 20.9099 13.9838 20.5854C13.6592 20.2608 13.4769 19.8205 13.4769 19.3615L13.4769 16.7409C13.2553 16.8569 13.0112 16.9236 12.7614 16.9362C12.5116 16.9489 12.262 16.9073 12.0298 16.8144C11.7977 16.7214 11.5884 16.5792 11.4164 16.3976C11.2444 16.216 11.1137 15.9993 11.0335 15.7624C10.7713 15.922 10.4713 16.0089 10.1644 16.0142C9.85753 16.0195 9.55474 15.9431 9.28714 15.7927C9.01954 15.6424 8.79676 15.4236 8.64166 15.1587C8.48656 14.8938 8.40473 14.5925 8.40457 14.2855L8.40272 14.0907C8.25444 14.1429 8.09837 14.1694 7.94118 14.1692L7.59503 14.1692C6.63964 14.1692 5.86426 13.3938 5.86426 12.4384L5.86426 9.15229C5.86171 9.13239 5.86048 9.11235 5.86057 9.09229C5.86057 7.1169 6.60826 5.70736 7.76949 4.80459C8.91226 3.91567 10.4076 3.55382 11.8606 3.55382C13.3283 3.55382 14.5698 3.92213 15.6304 4.6089C16.6836 5.29013 17.5347 6.27044 18.251 7.46121C18.5614 7.93494 18.8623 8.41472 19.1538 8.90028C20.1996 10.6237 18.9323 12.7846 16.9384 12.7846L16.9384 19.3615ZM17.5089 7.93013C17.8168 8.39887 18.1153 8.87374 18.4043 9.35444C19.0846 10.4769 18.2695 11.9077 16.9384 11.9077L16.8923 11.9077L16.8923 10.4769C16.8923 10.3667 16.8485 10.2611 16.7706 10.1832C16.6927 10.1053 16.587 10.0615 16.4769 10.0615C16.3667 10.0615 16.2611 10.1053 16.1832 10.1832C16.1053 10.2611 16.0615 10.3667 16.0615 10.4769L16.0615 19.3615C16.0615 19.588 15.9715 19.8051 15.8114 19.9653C15.6513 20.1254 15.4341 20.2154 15.2076 20.2154C14.9812 20.2154 14.764 20.1254 14.6039 19.9653C14.4438 19.8051 14.3538 19.588 14.3538 19.3615L14.3575 12.7846C14.3575 12.6744 14.3137 12.5688 14.2358 12.4909C14.1579 12.413 14.0523 12.3692 13.9421 12.3692C13.8319 12.3692 13.7263 12.413 13.6484 12.4909C13.5705 12.5688 13.5267 12.6744 13.5267 12.7846L13.5267 15.2298C13.514 15.4496 13.4171 15.6559 13.2561 15.806C13.0951 15.956 12.8824 16.0382 12.6623 16.0353C12.4422 16.0325 12.2317 15.9448 12.0746 15.7906C11.9176 15.6365 11.826 15.4277 11.819 15.2077L11.819 13.1538C11.819 13.0437 11.7753 12.938 11.6974 12.8601C11.6195 12.7822 11.5138 12.7384 11.4036 12.7384C11.2935 12.7384 11.1878 12.7822 11.1099 12.8601C11.032 12.938 10.9883 13.0437 10.9883 13.1538L10.9883 13.6523C10.9857 13.6709 10.9845 13.6898 10.9846 13.7086L10.9864 14.2846C10.9865 14.3966 10.9646 14.5075 10.9218 14.6111C10.8791 14.7146 10.8164 14.8087 10.7372 14.888C10.6581 14.9673 10.5642 15.0302 10.4607 15.0732C10.3573 15.1161 10.2464 15.1383 10.1344 15.1384C10.0224 15.1386 9.91147 15.1166 9.80794 15.0739C9.70441 15.0311 9.61032 14.9684 9.53103 14.8893C9.45175 14.8102 9.38882 14.7162 9.34584 14.6128C9.30287 14.5093 9.28069 14.3984 9.28057 14.2864L9.28057 12.3231C9.28057 12.2129 9.2368 12.1072 9.1589 12.0293C9.081 11.9514 8.97535 11.9077 8.86518 11.9077C8.75501 11.9077 8.64936 11.9514 8.57146 12.0293C8.49356 12.1072 8.4498 12.2129 8.4498 12.3231L8.4498 12.7846C8.4498 12.8513 8.43666 12.9173 8.41115 12.9789C8.38564 13.0405 8.34824 13.0964 8.3011 13.1436C8.25395 13.1907 8.19799 13.2281 8.13639 13.2536C8.07479 13.2792 8.00877 13.2923 7.9421 13.2923L7.59595 13.2923C7.12518 13.2923 6.7421 12.9101 6.7421 12.4384L6.7421 9.09229C6.7421 9.07382 6.7421 9.05629 6.73933 9.03967L6.73841 9.03321C6.75318 7.33659 7.39103 6.21136 8.30856 5.49782C9.25379 4.76305 10.5387 4.43075 11.8624 4.43075C13.1732 4.43075 14.2467 4.75752 15.155 5.34459C16.0689 5.93536 16.835 6.8049 17.5052 7.9209C17.507 7.92381 17.5077 7.9269 17.5089 7.93013Z"
                      fill="black"
                      stroke="black"
                      stroke-width="0.4"
                    />
                    <path
                      d="M1.48424 12C1.48424 6.19276 6.19239 1.48461 11.9996 1.48461C17.8069 1.48461 22.515 6.19276 22.515 12C22.515 17.8072 17.8069 22.5154 11.9996 22.5154C6.19239 22.5154 1.48424 17.8072 1.48424 12ZM11.9996 0.361529C5.57147 0.36153 0.361161 5.57184 0.361161 12C0.361162 18.4281 5.57147 23.6385 11.9996 23.6385C18.4278 23.6385 23.6381 18.4281 23.6381 12C23.6381 5.57184 18.4278 0.361529 11.9996 0.361529Z"
                      fill="black"
                      stroke="black"
                      stroke-width="0.2"
                    />
                  </g>
                  <defs>
                    <clipPath id="clip0_174_132">
                      <rect
                        width="24"
                        height="24"
                        fill="white"
                        transform="translate(24 24) rotate(180)"
                      />
                    </clipPath>
                  </defs>
                </svg>