  <svg
    width="24"
    height="24"
    viewBox="0 0 24 24"
    fill="none"
    xmlns="http://www.w3.org/2000/svg"
>
    <path
    d="M13.2035 6.80153V11.1499L16.8166 13.3176C16.9986 13.4269 17.1297 13.604 17.1811 13.81C17.2325 14.016 17.2 14.2339 17.0907 14.4159C16.9814 14.5979 16.8043 14.729 16.5983 14.7804C16.3923 14.8318 16.1744 14.7993 15.9924 14.69L11.9911 12.2892C11.8727 12.2181 11.7747 12.1175 11.7067 11.9972C11.6387 11.877 11.603 11.7412 11.603 11.603V6.80153C11.603 6.58929 11.6873 6.38574 11.8374 6.23567C11.9875 6.08559 12.191 6.00128 12.4032 6.00128C12.6155 6.00128 12.819 6.08559 12.9691 6.23567C13.1192 6.38574 13.2035 6.58929 13.2035 6.80153ZM12.4032 2.00003C11.1409 1.99689 9.89036 2.24414 8.72415 2.72748C7.55795 3.21083 6.49918 3.92066 5.60913 4.81591C4.8819 5.55214 4.2357 6.26036 3.6005 7.00159V5.20103C3.6005 4.98879 3.51619 4.78524 3.36611 4.63517C3.21604 4.48509 3.01249 4.40078 2.80025 4.40078C2.58801 4.40078 2.38446 4.48509 2.23439 4.63517C2.08431 4.78524 2 4.98879 2 5.20103V9.20228C2 9.41452 2.08431 9.61807 2.23439 9.76814C2.38446 9.91822 2.58801 10.0025 2.80025 10.0025H6.8015C7.01374 10.0025 7.21729 9.91822 7.36736 9.76814C7.51744 9.61807 7.60175 9.41452 7.60175 9.20228C7.60175 8.99004 7.51744 8.78649 7.36736 8.63642C7.21729 8.48634 7.01374 8.40203 6.8015 8.40203H4.50078C5.216 7.55977 5.92823 6.76652 6.74048 5.94426C7.85268 4.83207 9.26798 4.07229 10.8095 3.75986C12.3511 3.44743 13.9505 3.59621 15.408 4.1876C16.8654 4.77899 18.1163 5.78678 19.0043 7.08503C19.8923 8.38328 20.378 9.91442 20.4008 11.4871C20.4235 13.0599 19.9823 14.6044 19.1322 15.9278C18.2822 17.2512 17.061 18.2948 15.6212 18.9281C14.1815 19.5614 12.587 19.7563 11.0371 19.4886C9.48712 19.2209 8.05044 18.5024 6.90653 17.4228C6.83008 17.3506 6.74014 17.2941 6.64186 17.2566C6.54358 17.2191 6.43887 17.2014 6.33373 17.2043C6.22858 17.2073 6.12504 17.231 6.02904 17.2739C5.93303 17.3169 5.84643 17.3784 5.77418 17.4549C5.70193 17.5313 5.64545 17.6212 5.60795 17.7195C5.57046 17.8178 5.55269 17.9225 5.55567 18.0277C5.55864 18.1328 5.58229 18.2363 5.62528 18.3324C5.66826 18.4284 5.72974 18.515 5.80619 18.5872C6.94599 19.6628 8.33173 20.4431 9.84245 20.86C11.3532 21.2769 12.943 21.3177 14.4731 20.9789C16.0032 20.6401 17.4272 19.9319 18.6207 18.9163C19.8142 17.9006 20.741 16.6082 21.3202 15.1519C21.8993 13.6957 22.1133 12.1198 21.9434 10.5619C21.7735 9.00394 21.2248 7.51124 20.3454 6.21408C19.4659 4.91692 18.2823 3.85471 16.898 3.12016C15.5136 2.38561 13.9704 2.00105 12.4032 2.00003Z"
    fill="#11212d"
    />
</svg>