  <svg
              width="30"
              height="30"
              viewBox="0 0 30 30"
              fill="none"
              xmlns="http://www.w3.org/2000/svg"
            >
              <path
                d="M20.2599 7.08696C20.2599 9.8964 17.9823 12.1739 15.1729 12.1739C12.3634 12.1739 10.0859 9.89641 10.0859 7.08696C10.0859 4.27751 12.3634 2 15.1729 2C17.9823 2 20.2599 4.27751 20.2599 7.08696Z"
                stroke="#11212d"
                stroke-width="2"
              />
              <path
                d="M26.3478 22.1486C26.3478 24.1262 26.2941 25.3198 25.1946 26.2152C24.6064 26.6942 23.6392 27.149 22.0135 27.4781C20.3923 27.8063 18.183 27.9964 15.1739 27.9964C12.1648 27.9964 9.95549 27.8063 8.33428 27.4781C6.70864 27.149 5.74146 26.6942 5.15321 26.2152C4.05374 25.3198 4 24.1262 4 22.1486C4 20.7796 4.99725 19.3363 7.05608 18.1782C9.08352 17.0377 11.9516 16.3008 15.1739 16.3008C18.3962 16.3008 21.2643 17.0377 23.2917 18.1782C25.3506 19.3363 26.3478 20.7796 26.3478 22.1486Z"
                stroke="#11212d"
                stroke-width="2"
              />
            </svg>