<svg width="32" height="32" viewBox="0 0 32 32" fill="none" xmlns="http://www.w3.org/2000/svg">
<path d="M21.2501 21.132L21.9403 20.4464L20.3374 18.836L19.6503 19.5216L21.2501 21.132ZM24.2545 20.1588L27.1469 21.7314L28.2291 19.7365L25.3382 18.1655L24.2545 20.1588ZM27.7024 24.8554L25.5531 26.994L27.1529 28.6029L29.3022 26.4658L27.7024 24.8554ZM24.2424 27.6812C22.0477 27.887 16.3719 27.7039 10.2239 21.5921L8.62252 23.2011C15.3306 29.8713 21.7163 30.1982 24.4543 29.9424L24.2424 27.6812ZM10.2239 21.5921C4.36489 15.765 3.39319 10.8656 3.27211 8.73905L1.0048 8.8677C1.15616 11.5437 2.35943 16.9743 8.62252 23.2011L10.2239 21.5921ZM12.305 12.2384L12.7394 11.8055L11.1411 10.1966L10.7067 10.628L12.305 12.2384ZM13.0845 6.30374L11.1774 3.75492L9.35962 5.11712L11.2667 7.66443L13.0845 6.30374ZM4.75841 3.19945L2.38214 5.56059L3.98348 7.17101L6.35824 4.80987L4.75841 3.19945ZM11.5058 11.4332C10.7037 10.628 10.7037 10.628 10.7037 10.631H10.7006L10.6961 10.637C10.6246 10.71 10.5603 10.7896 10.5039 10.8747C10.4221 10.9958 10.3328 11.1547 10.2572 11.356C10.0728 11.8756 10.0269 12.4343 10.124 12.977C10.3268 14.2862 11.2289 16.0162 13.5385 18.3138L15.1399 16.7034C12.977 14.5541 12.4624 13.2464 12.367 12.6289C12.3216 12.3353 12.3686 12.19 12.3822 12.1567C12.3897 12.1355 12.3928 12.134 12.3822 12.1476C12.3688 12.1686 12.3536 12.1883 12.3368 12.2066L12.3216 12.2217C12.3167 12.2264 12.3117 12.231 12.3065 12.2354L11.5058 11.4332ZM13.5385 18.3138C15.8497 20.6114 17.5888 21.5074 18.8995 21.7072C19.57 21.8101 20.1104 21.7284 20.5206 21.5755C20.7499 21.4906 20.9645 21.3701 21.1562 21.2183C21.1823 21.1965 21.2075 21.1738 21.2319 21.1502L21.2425 21.1411L21.2471 21.1366L21.2486 21.1335C21.2486 21.1335 21.2501 21.132 20.4494 20.3268C19.6472 19.5216 19.6518 19.5201 19.6518 19.5201L19.6548 19.5171L19.6578 19.514L19.6669 19.5065L19.682 19.4913C19.7002 19.475 19.7195 19.4598 19.7396 19.4459C19.7547 19.4353 19.7502 19.4399 19.729 19.449C19.6911 19.4626 19.5428 19.5095 19.2446 19.4641C18.618 19.3672 17.3012 18.8526 15.1399 16.7034L13.5385 18.3138ZM11.1774 3.75341C9.63357 1.69498 6.60041 1.36805 4.75841 3.19945L6.35824 4.80987C7.16345 4.0092 8.59224 4.09244 9.35962 5.11712L11.1774 3.75341ZM3.27362 8.74057C3.24335 8.21688 3.484 7.66897 3.98348 7.17252L2.38062 5.5621C1.56785 6.37034 0.927612 7.51459 1.0048 8.8677L3.27362 8.74057ZM25.5531 26.994C25.1384 27.4087 24.6904 27.6418 24.2439 27.6827L24.4543 29.9424C25.5667 29.838 26.4764 29.278 27.1545 28.6044L25.5531 26.994ZM12.7394 11.8055C14.2302 10.3237 14.3407 7.98228 13.086 6.30526L11.2682 7.66594C11.8782 8.48175 11.7874 9.55183 11.1396 10.1981L12.7394 11.8055ZM27.1484 21.7329C28.385 22.4049 28.5772 23.9881 27.7039 24.8569L29.3052 26.4658C31.3334 24.4482 30.7083 21.0836 28.2306 19.738L27.1484 21.7329ZM21.9403 20.4479C22.5215 19.8697 23.4568 19.7274 24.256 20.1603L25.3397 18.167C23.699 17.274 21.6648 17.5207 20.3389 18.8375L21.9403 20.4479Z" fill="#11212d"/>
</svg>
