   <svg
    width="26"
    height="26"
    viewBox="0 0 26 26"
    fill="none"
    xmlns="http://www.w3.org/2000/svg"
    >
    <path
        d="M22.9026 18.9926C22.0962 18.1801 20.1432 16.9943 19.1956 16.5165C17.9616 15.8949 17.8601 15.8441 16.8901 16.5647C16.2432 17.0456 15.8131 17.4752 15.0559 17.3137C14.2988 17.1523 12.6535 16.2417 11.2128 14.8057C9.77213 13.3696 8.80881 11.6765 8.64681 10.9219C8.48482 10.1673 8.92154 9.74226 9.39787 9.09378C10.0692 8.17972 10.0184 8.02737 9.44459 6.79339C8.9972 5.83363 7.77693 3.89886 6.96138 3.09652C6.08896 2.23476 6.08896 2.3871 5.52681 2.6207C5.06914 2.81321 4.63008 3.04728 4.21513 3.31995C3.40263 3.85976 2.9517 4.30816 2.63635 4.98202C2.32099 5.65589 2.17931 7.2357 3.80787 10.1942C5.43642 13.1527 6.579 14.6655 8.94388 17.0238C11.3088 19.3821 13.1272 20.6501 15.7856 22.141C19.0742 23.9828 20.3356 23.6238 21.0115 23.309C21.6874 22.9941 22.1379 22.5473 22.6787 21.7348C22.9521 21.3205 23.1866 20.8819 23.3795 20.4246C23.6136 19.8645 23.7659 19.8645 22.9026 18.9926Z"
        stroke="white"
        stroke-width="1.625"
        stroke-miterlimit="10"
    />
    </svg>