   <svg
    width="22"
    height="18"
    viewBox="0 0 22 18"
    fill="none"
    xmlns="http://www.w3.org/2000/svg"
>
    <path
    d="M21.1563 8.99915C21.1563 9.32238 21.0279 9.63237 20.7993 9.86093C20.5707 10.0895 20.2607 10.2179 19.9375 10.2179H5.00783L10.2403 15.4494C10.4693 15.6783 10.5979 15.9889 10.5979 16.3127C10.5979 16.6365 10.4693 16.947 10.2403 17.1759C10.0114 17.4049 9.70084 17.5335 9.37705 17.5335C9.05325 17.5335 8.74272 17.4049 8.51376 17.1759L1.20127 9.86344C1.08765 9.75022 0.997494 9.61567 0.935981 9.46753C0.874468 9.31939 0.842804 9.16057 0.842804 9.00016C0.842804 8.83976 0.874468 8.68093 0.935981 8.53279C0.997494 8.38465 1.08765 8.25011 1.20127 8.13688L8.51376 0.824379C8.62713 0.711012 8.76172 0.621084 8.90984 0.559729C9.05796 0.498375 9.21672 0.466797 9.37705 0.466797C9.53737 0.466797 9.69613 0.498375 9.84425 0.559729C9.99237 0.621084 10.127 0.711012 10.2403 0.824379C10.3537 0.937747 10.4436 1.07233 10.505 1.22046C10.5663 1.36858 10.5979 1.52733 10.5979 1.68766C10.5979 1.84799 10.5663 2.00674 10.505 2.15487C10.4436 2.30299 10.3537 2.43757 10.2403 2.55094L5.00783 7.7804H19.9375C20.2607 7.7804 20.5707 7.9088 20.7993 8.13736C21.0279 8.36592 21.1563 8.67591 21.1563 8.99915Z"
    fill="#11212d"
    />
</svg>