<svg width="16" height="16" viewBox="0 0 16 16" fill="none" xmlns="http://www.w3.org/2000/svg">
  <g clip-path="url(#clip0_656_636)">
    <path
      d="M4.50467 7.33031L7.138 4.69697C7.20167 4.63548 7.25246 4.56191 7.2874 4.48058C7.32234 4.39924 7.34073 4.31176 7.3415 4.22324C7.34227 4.13472 7.3254 4.04693 7.29188 3.965C7.25836 3.88307 7.20886 3.80864 7.14626 3.74604C7.08367 3.68345 7.00923 3.63395 6.9273 3.60043C6.84537 3.5669 6.75759 3.55004 6.66907 3.55081C6.58055 3.55158 6.49307 3.56997 6.41173 3.60491C6.33039 3.63984 6.25683 3.69063 6.19533 3.75431L2.424 7.52564C2.29902 7.65066 2.22881 7.8202 2.22881 7.99697C2.22881 8.17375 2.29902 8.34329 2.424 8.46831L6.19533 12.2396C6.32107 12.3611 6.48947 12.4283 6.66427 12.4268C6.83907 12.4252 7.00627 12.3551 7.12988 12.2315C7.25348 12.1079 7.3236 11.9407 7.32512 11.7659C7.32663 11.5911 7.25944 11.4227 7.138 11.297L4.50467 8.66364L13.3333 8.66364C13.5101 8.66364 13.6797 8.5934 13.8047 8.46838C13.9298 8.34335 14 8.17378 14 7.99697C14 7.82016 13.9298 7.65059 13.8047 7.52557C13.6797 7.40054 13.5101 7.33031 13.3333 7.33031L4.50467 7.33031Z"
      fill="white" />
  </g>
  <defs>
    <clipPath id="clip0_656_636">
      <rect width="16" height="16" fill="white" transform="translate(16) rotate(90)" />
    </clipPath>
  </defs>
</svg>