<svg width="101" height="101" viewBox="0 0 101 101" fill="none" xmlns="http://www.w3.org/2000/svg">
<path d="M64.978 62.1013C69.442 56.6975 72.2614 49.7665 72.2614 42.1307C72.2614 24.9794 58.2819 11 41.1307 11C23.9794 11 10 24.9794 10 42.1307C10 59.2819 23.9794 73.2614 41.1307 73.2614C48.6491 73.2614 55.6975 70.5595 61.1013 65.978L85.301 90.1777C85.8884 90.7651 86.5933 91 87.2981 91C88.0029 91 88.7078 90.7651 89.2952 90.1777C90.3524 89.1204 90.3524 87.2408 89.2952 86.1836L64.978 62.1013ZM41.0132 67.6226C26.9163 67.6226 15.5213 56.2276 15.5213 42.1307C15.5213 28.0338 26.9163 16.6388 41.0132 16.6388C55.1101 16.6388 66.5051 28.0338 66.5051 42.1307C66.5051 56.2276 55.1101 67.6226 41.0132 67.6226Z" fill="#11212d"/>
</svg>
