<svg
            xmlns="http://www.w3.org/2000/svg"
            viewBox="0 0 29 29"
            id="sorticon"
          >
            <path
             d="M9.5998 16.0335C10.453 16.0335 11.2712 16.3724 11.8745 16.9757C12.4777 17.579 12.8167 18.3972 12.8167 19.2504V25.6841C12.8167 26.5373 12.4777 27.3555 11.8745 27.9588C11.2712 28.562 10.453 28.901 9.5998 28.901H3.16608C2.31291 28.901 1.49469 28.562 0.891415 27.9588C0.288137 27.3555 -0.0507812 26.5373 -0.0507812 25.6841V19.2504C-0.0507812 18.3972 0.288137 17.579 0.891415 16.9757C1.49469 16.3724 2.31291 16.0335 3.16608 16.0335H9.5998ZM25.6841 16.0335C26.5373 16.0335 27.3555 16.3724 27.9588 16.9757C28.562 17.579 28.901 18.3972 28.901 19.2504V25.6841C28.901 26.5373 28.562 27.3555 27.9588 27.9588C27.3555 28.562 26.5373 28.901 25.6841 28.901H19.2504C18.3972 28.901 17.579 28.562 16.9757 27.9588C16.3724 27.3555 16.0335 26.5373 16.0335 25.6841V19.2504C16.0335 18.3972 16.3724 17.579 16.9757 16.9757C17.579 16.3724 18.3972 16.0335 19.2504 16.0335H25.6841ZM9.5998 -0.0507812C10.453 -0.0507812 11.2712 0.288137 11.8745 0.891415C12.4777 1.49469 12.8167 2.31291 12.8167 3.16608V9.5998C12.8167 10.453 12.4777 11.2712 11.8745 11.8745C11.2712 12.4777 10.453 12.8167 9.5998 12.8167H3.16608C2.31291 12.8167 1.49469 12.4777 0.891415 11.8745C0.288137 11.2712 -0.0507812 10.453 -0.0507812 9.5998V3.16608C-0.0507812 2.31291 0.288137 1.49469 0.891415 0.891415C1.49469 0.288137 2.31291 -0.0507812 3.16608 -0.0507812H9.5998ZM25.6841 -0.0507812C26.5373 -0.0507812 27.3555 0.288137 27.9588 0.891415C28.562 1.49469 28.901 2.31291 28.901 3.16608V9.5998C28.901 10.453 28.562 11.2712 27.9588 11.8745C27.3555 12.4777 26.5373 12.8167 25.6841 12.8167H19.2504C18.3972 12.8167 17.579 12.4777 16.9757 11.8745C16.3724 11.2712 16.0335 10.453 16.0335 9.5998V3.16608C16.0335 2.31291 16.3724 1.49469 16.9757 0.891415C17.579 0.288137 18.3972 -0.0507812 19.2504 -0.0507812H25.6841Z"
            ></path>
          </svg>
