<svg width="800" height="800" viewBox="0 0 800 800" fill="none" xmlns="http://www.w3.org/2000/svg">
<g clip-path="url(#clip0_176_97)">
<path d="M374.437 -0.374988C375.637 -0.370336 376.837 -0.365683 378.074 -0.360889C395.543 -0.281628 412.74 0.0710776 430 3.00001C431.812 3.29803 431.812 3.29803 433.66 3.60206C493.962 13.7654 553.346 37.2342 601.349 75.6826C603.457 77.3645 605.604 78.993 607.75 80.625C623.825 93.227 639.622 107.099 652.949 122.613C654.479 124.394 656.026 126.16 657.582 127.918C712.741 190.61 748.838 275.671 749.203 359.816C749.214 361.447 749.214 361.447 749.224 363.11C749.241 366.594 749.248 370.078 749.25 373.562C749.251 374.752 749.252 375.941 749.253 377.166C749.243 394.324 748.773 411.036 746 428C745.729 429.86 745.46 431.721 745.191 433.582C743.435 445.12 740.805 456.43 738 467.75C737.749 468.77 737.749 468.77 737.493 469.811C735.449 478.056 733.108 486.086 730 494C727.184 492.635 724.921 491.252 722.562 489.188C722.007 488.707 721.451 488.226 720.879 487.73C719.444 486.409 718.072 485.021 716.73 483.605C714.574 481.547 712.906 480.267 710.422 478.758C706.13 475.868 702.738 473 701 468C701.077 459.566 704 451.272 706.331 443.223C708.357 436.083 709.398 428.93 710.312 421.562C710.531 419.871 710.531 419.871 710.754 418.145C711.025 416.006 711.29 413.867 711.549 411.727C712.039 407.675 712.544 403.624 713.051 399.574C713.143 398.842 713.235 398.109 713.329 397.355C713.553 395.57 713.776 393.785 714 392C712.267 392.03 712.267 392.03 710.499 392.061C699.583 392.243 688.667 392.378 677.75 392.466C672.138 392.513 666.527 392.577 660.915 392.679C655.495 392.777 650.075 392.831 644.654 392.854C642.591 392.87 640.528 392.903 638.466 392.952C620.286 393.364 620.286 393.364 613.88 387.672C612.542 386.153 611.244 384.597 610 383C608.806 381.777 607.601 380.566 606.375 379.375C605.825 378.814 605.274 378.254 604.707 377.676C602.887 375.889 600.995 374.225 599.062 372.562C595.541 369.529 592.283 366.303 589.023 362.992C586.341 360.351 583.522 357.893 580.664 355.445C577.042 352.299 577.042 352.299 576.653 349.527C576.581 347.963 576.581 347.963 576.508 346.367C576.445 345.185 576.382 344.003 576.317 342.786C576.254 341.495 576.19 340.205 576.125 338.875C573.728 296.858 566.501 254.613 553.133 214.66C552.853 213.822 552.573 212.984 552.285 212.121C551.912 211.029 551.912 211.029 551.531 209.916C551 208 551 208 551 205C498.53 205 446.06 205 392 205C392 255.16 392 305.32 392 357C420.05 357 448.1 357 477 357C477 368.55 477 380.1 477 392C448.95 392 420.9 392 392 392C392 442.16 392 492.32 392 544C420.05 544 448.1 544 477 544C477 555.55 477 567.1 477 579C448.95 579 420.9 579 392 579C392 623.22 392 667.44 392 713C423.427 704.429 446.961 693.745 471.137 672.469C474 670 474 670 477 668C477 690.11 477 712.22 477 735C457.233 740.814 457.233 740.814 447.312 742.625C446.216 742.83 445.119 743.036 443.99 743.247C425.607 746.616 407.149 749.12 388.437 749.203C387.376 749.21 386.314 749.217 385.22 749.224C381.813 749.242 378.407 749.248 375 749.25C373.252 749.251 373.252 749.251 371.469 749.252C354.124 749.236 337.155 748.796 320 746C318.907 745.828 317.814 745.657 316.687 745.48C252.758 735.225 192.636 709.441 142 669C141.071 668.264 140.141 667.528 139.184 666.77C133.158 661.927 127.439 656.815 121.777 651.559C119.511 649.47 117.217 647.44 114.875 645.438C108.119 639.566 101.822 633.162 96.0156 626.352C94.4213 624.492 92.8064 622.66 91.1718 620.836C79.3051 607.506 68.8649 593.16 59.1093 578.227C57.355 575.543 55.5625 572.894 53.75 570.25C23.3849 524.574 6.69995 466.957 0.999957 413C0.912628 412.183 0.825283 411.366 0.735308 410.524C0.0492635 403.62 -0.175401 396.78 -0.203168 389.844C-0.208868 388.703 -0.214569 387.561 -0.220441 386.386C-0.229839 383.975 -0.236404 381.565 -0.240278 379.155C-0.249869 375.565 -0.280896 371.976 -0.312543 368.387C-0.387336 352.07 0.783113 336.162 2.99996 320C3.15359 318.871 3.15359 318.871 3.31032 317.719C3.84932 313.858 4.48176 310.022 5.18746 306.188C5.3954 305.051 5.60334 303.915 5.81758 302.744C18.5593 235.967 50.13 172.329 96.5898 122.594C98.5957 120.435 100.529 118.244 102.437 116C109.638 107.71 117.63 100.093 126 93C127.014 92.1119 128.027 91.2225 129.039 90.332C178.777 46.7845 241.243 17.0535 306.187 5.18751C307.677 4.91342 307.677 4.91342 309.197 4.6338C312.789 4.02077 316.389 3.48961 320 3.00001C320.924 2.87473 321.848 2.74945 322.8 2.62037C340.057 0.347928 357.041 -0.496202 374.437 -0.374988ZM392 36C392 80.22 392 124.44 392 170C439.85 170 487.7 170 537 170C531.599 158.598 526.416 147.747 520 137C519.259 135.731 518.52 134.461 517.781 133.191C513.258 125.465 508.457 118.111 503 111C502.59 110.46 502.18 109.92 501.758 109.364C495.259 100.819 488.416 92.7659 481 85C480.135 84.0938 479.27 83.1876 478.379 82.2539C475.274 79.038 475.274 79.038 472 76C471.34 76 470.68 76 470 76C469.67 75.01 469.34 74.02 469 73C467.017 71.2083 465.049 69.5648 462.937 67.9375C462.317 67.4558 461.696 66.9741 461.057 66.4778C442.456 52.301 416.282 36 392 36ZM318 48C317.352 48.3187 316.703 48.6375 316.035 48.9658C307.423 53.242 299.59 58.0567 292 64C291.183 64.6252 290.365 65.2504 289.523 65.8945C282.675 71.2316 276.311 77.0479 270 83C269.266 83.691 268.533 84.3819 267.777 85.0938C256.912 95.6352 247.293 108.355 239 121C238.496 121.739 237.992 122.477 237.473 123.238C236.775 124.265 236.775 124.265 236.062 125.313C235.6 125.989 235.137 126.666 234.66 127.363C232.758 130.384 231.038 133.48 229.318 136.607C228.06 138.89 226.784 141.161 225.5 143.43C217.154 156.101 217.154 156.101 213 170C260.52 170 308.04 170 357 170C357 125.78 357 81.56 357 36C343.713 36 329.716 42.1718 318 48ZM240 62C237.604 62.8531 237.604 62.8531 234.898 64.211C233.859 64.7093 232.819 65.2077 231.748 65.7212C230.078 66.5398 230.078 66.5398 228.375 67.375C226.673 68.2033 226.673 68.2033 224.936 69.0484C211.243 75.7673 198.321 83.1491 185.76 91.7944C184.094 92.9355 182.415 94.0563 180.734 95.1758C168.512 103.409 157.189 112.786 146.387 122.797C144.231 124.787 142.038 126.714 139.812 128.625C132.979 134.58 126.888 141.123 121 148C120.416 148.656 119.832 149.312 119.23 149.988C118.405 150.922 118.405 150.922 117.562 151.875C117.069 152.429 116.575 152.984 116.066 153.555C114.802 154.969 114.802 154.969 115 157C114.34 157 113.68 157 113 157C111.373 158.948 109.864 160.888 108.375 162.938C107.955 163.501 107.534 164.065 107.102 164.646C104.943 167.084 104.943 167.084 104 170C127.1 170 150.2 170 174 170C178.835 159.647 178.835 159.647 183.633 149.277C198.475 117.298 217.95 88.7579 242 63C241.01 62.505 241.01 62.505 240 62ZM507 62C509.558 66.0121 512.195 69.4264 515.5 72.875C533.273 92.1641 546.888 115.215 559.062 138.313C559.521 139.176 559.979 140.039 560.451 140.928C565.407 150.457 569.569 160.153 574 170C597.43 170 620.86 170 645 170C641.845 164.303 641.845 164.303 638.082 159.387C637.554 158.783 637.026 158.179 636.482 157.557C635.931 156.94 635.38 156.323 634.812 155.688C633.956 154.717 633.956 154.717 633.083 153.726C631.934 152.426 630.783 151.128 629.629 149.833C628.148 148.166 626.681 146.488 625.219 144.805C624.425 143.9 623.631 142.995 622.812 142.063C622.118 141.27 621.423 140.477 620.707 139.66C619.158 137.768 619.158 137.768 617 138C616.755 137.429 616.51 136.858 616.258 136.27C612.228 128.998 604.285 123.34 598 118C597.009 117.143 596.017 116.286 594.996 115.402C588.23 109.576 581.329 104.112 574 99C573.113 98.3738 573.113 98.3738 572.207 97.7349C562.721 91.0433 553.079 84.7624 543 79C542.215 78.5509 541.431 78.1019 540.622 77.6392C524.672 67.2506 524.672 67.2506 507 62ZM80 205C75.1699 213.453 70.5032 221.672 66.375 230.438C65.9033 231.436 65.4317 232.435 64.9458 233.464C51.3575 262.477 42.5468 293.297 37.6875 324.938C37.5279 325.966 37.3683 326.994 37.2038 328.053C35.8196 337.756 35.5215 347.09 35 357C68.33 357 101.66 357 136 357C136.66 348.42 137.32 339.84 138 331C138.571 324.745 139.154 318.496 139.812 312.25C139.896 311.455 139.98 310.659 140.066 309.84C143.702 275.67 150.872 242.454 160.361 209.461C161.084 207.101 161.084 207.101 161 205C134.27 205 107.54 205 80 205ZM198 205C181.705 256.213 174.001 302.98 171 357C232.38 357 293.76 357 357 357C357 306.84 357 256.68 357 205C304.53 205 252.06 205 198 205ZM587 205C587.283 205.999 587.565 206.997 587.856 208.026C588.929 211.821 589.995 215.618 591.06 219.416C591.516 221.043 591.975 222.669 592.435 224.294C603.598 263.73 610.048 304.69 611.71 345.651C611.872 349.568 612.347 353.085 613 357C646.33 357 679.66 357 714 357C713.362 345.512 712.639 334.434 710.875 323.125C710.767 322.424 710.659 321.723 710.548 321.001C705.578 289.088 696.167 258.053 682 229C681.566 228.103 681.132 227.206 680.685 226.282C678.538 221.862 676.372 217.452 674.164 213.063C673.818 212.373 673.472 211.683 673.116 210.973C672.747 210.322 672.379 209.671 672 209C671.466 207.963 671.466 207.963 670.922 206.905C668.503 204.507 666.746 204.529 663.423 204.502C662.667 204.517 661.911 204.531 661.132 204.546C660.332 204.545 659.532 204.545 658.707 204.544C656.061 204.547 653.416 204.578 650.769 204.609C648.935 204.617 647.101 204.623 645.267 204.627C640.438 204.642 635.61 204.681 630.782 204.725C625.855 204.766 620.929 204.785 616.002 204.805C606.334 204.848 596.667 204.916 587 205ZM35 392C35.6187 403.756 36.2617 414.908 38.125 426.438C38.2326 427.111 38.3402 427.785 38.451 428.479C43.9263 462.46 54.6212 518.621 80 544C82.5254 544.095 85.0233 544.126 87.549 544.114C88.3392 544.114 89.1294 544.114 89.9435 544.114C92.5678 544.113 95.1921 544.105 97.8164 544.098C99.631 544.096 101.446 544.094 103.26 544.093C108.046 544.09 112.831 544.08 117.617 544.069C122.497 544.058 127.376 544.054 132.256 544.049C141.837 544.038 151.419 544.021 161 544C160.369 541.461 159.737 538.922 159.105 536.383C158.928 535.672 158.751 534.96 158.569 534.227C157.538 530.092 156.464 525.974 155.324 521.867C144.649 483.09 139.352 443.241 137.234 403.138C136.956 399.413 136.463 395.707 136 392C102.67 392 69.34 392 35 392ZM171 393C170.811 429.948 177.041 467.771 185.875 503.562C186.166 504.748 186.457 505.934 186.757 507.156C189.961 519.648 194.05 531.657 198 544C250.47 544 302.94 544 357 544C357 493.84 357 443.68 357 392C324.144 391.971 324.144 391.971 291.287 391.951C277.897 391.945 264.506 391.938 251.116 391.925C241.366 391.915 231.615 391.908 221.865 391.906C216.699 391.905 211.533 391.902 206.367 391.894C201.51 391.887 196.654 391.885 191.797 391.887C190.009 391.887 188.222 391.885 186.434 391.881C184.004 391.876 181.574 391.877 179.144 391.88C178.427 391.877 177.71 391.874 176.971 391.871C173.705 391.6 173.705 391.6 171 393ZM104 579C109.5 588.329 116.981 596.206 124.328 604.105C126.684 606.658 128.969 609.256 131.25 611.875C140.528 622.201 151.094 631.442 162 640C162.933 640.752 163.867 641.503 164.828 642.277C184.83 658.1 206.766 671.203 229.687 682.312C230.686 682.799 231.685 683.286 232.714 683.788C233.637 684.225 234.561 684.663 235.512 685.113C236.331 685.503 237.151 685.893 237.995 686.294C238.657 686.527 239.318 686.76 240 687C240.66 686.67 241.32 686.34 242 686C241.527 685.55 241.054 685.1 240.566 684.637C232.447 676.739 225.617 667.897 218.812 658.875C218.326 658.23 217.839 657.586 217.337 656.922C200.146 633.923 186.574 608.243 175.765 581.708C175.124 580.005 175.124 580.005 174 579C171.822 578.906 169.641 578.883 167.461 578.886C166.778 578.886 166.095 578.886 165.391 578.886C163.124 578.887 160.857 578.895 158.59 578.902C157.022 578.904 155.454 578.906 153.886 578.907C149.751 578.91 145.617 578.92 141.482 578.931C137.266 578.942 133.05 578.946 128.834 578.951C120.556 578.962 112.278 578.979 104 579ZM213 579C218.832 596.497 228.704 612.779 239 628C239.435 628.646 239.871 629.293 240.32 629.959C246.321 638.791 252.938 646.998 260 655C260.659 655.754 260.659 655.754 261.331 656.522C286.008 684.638 319.078 708.26 357 713C357 668.78 357 624.56 357 579C309.48 579 261.96 579 213 579Z" fill="black"/>
<path d="M544.188 390.688C544.903 390.65 545.619 390.613 546.356 390.574C553.631 391.746 558.625 396.087 563.5 401.312C564.626 402.48 565.754 403.645 566.883 404.809C567.418 405.363 567.954 405.917 568.505 406.488C570.955 408.966 573.589 411.207 576.242 413.461C578.693 415.607 580.942 417.931 583.223 420.254C585.066 422.065 586.978 423.753 588.938 425.438C591.746 427.856 594.4 430.359 597 433C599.58 435.62 602.211 438.103 605 440.5C608.512 443.518 611.753 446.734 615 450.031C616.939 451.94 618.937 453.727 621 455.5C624.512 458.518 627.753 461.734 631 465.031C632.939 466.94 634.937 468.727 637 470.5C640.512 473.518 643.753 476.734 647 480.031C648.939 481.94 650.937 483.727 653 485.5C656.512 488.518 659.753 491.734 663 495.031C664.939 496.94 666.937 498.727 669 500.5C671.789 502.897 674.42 505.38 677 508C679.56 510.6 682.168 513.063 684.938 515.438C688.747 518.71 692.248 522.231 695.774 525.805C698.447 528.44 701.254 530.878 704.102 533.32C706.591 535.523 708.895 537.884 711.223 540.254C713.066 542.065 714.978 543.753 716.938 545.438C719.746 547.856 722.4 550.359 725 553C727.58 555.62 730.211 558.103 733 560.5C736.512 563.518 739.753 566.734 743 570.031C744.939 571.94 746.937 573.727 749 575.5C752.512 578.518 755.753 581.734 759 585.031C760.939 586.94 762.937 588.727 765 590.5C767.789 592.897 770.42 595.38 773 598C775.48 600.518 777.995 602.901 780.688 605.188C784.57 608.535 788.232 612.084 791.875 615.688C792.447 616.247 793.019 616.806 793.608 617.382C798.27 622.032 800.288 625.03 800.375 631.812C800.257 637.51 799.603 640.566 796 645C790.63 648.722 786.855 649.575 780.403 649.454C779.158 649.455 779.158 649.455 777.887 649.456C775.166 649.453 772.445 649.422 769.723 649.391C767.827 649.383 765.931 649.377 764.036 649.373C759.063 649.358 754.09 649.319 749.117 649.275C744.036 649.234 738.955 649.215 733.873 649.195C723.915 649.153 713.958 649.084 704 649C704.415 649.883 704.83 650.767 705.258 651.677C720.622 684.375 720.622 684.375 727.39 699.414C728.323 701.487 729.257 703.56 730.192 705.633C730.652 706.654 730.652 706.654 731.122 707.696C733.099 712.064 735.13 716.403 737.198 720.73C738.617 723.702 740.019 726.683 741.42 729.665C742.088 731.074 742.764 732.479 743.449 733.881C747.487 742.151 750.535 749.562 749 759C745.347 766.577 738.817 769.796 731.492 773.125C730.662 773.509 729.832 773.893 728.976 774.289C726.279 775.534 723.578 776.768 720.875 778C719.014 778.852 717.153 779.704 715.292 780.556C712.499 781.834 709.704 783.111 706.908 784.384C702.129 786.561 697.364 788.759 692.62 791.011C690.769 791.889 688.915 792.756 687.057 793.619C684.889 794.628 682.728 795.653 680.576 796.697C673.683 799.854 667.581 800.991 660 800C652.076 796.179 649.007 789.32 645.688 781.625C642.244 773.755 638.666 765.956 635.02 758.179C631.911 751.536 628.827 744.882 625.739 738.23C624.914 736.453 624.088 734.677 623.261 732.9C618.032 721.66 612.908 710.385 608 699C603.08 703.126 598.45 707.414 593.93 711.973C593.286 712.618 592.642 713.264 591.978 713.929C589.941 715.971 587.908 718.017 585.875 720.062C584.504 721.438 583.133 722.814 581.762 724.189C579.243 726.716 576.726 729.244 574.211 731.774C571.479 734.521 568.741 737.262 566 740C565.38 740.62 564.76 741.24 564.121 741.879C562.957 743.044 561.788 744.205 560.617 745.363C559.383 746.612 558.208 747.92 557.063 749.25C552.737 752.92 548.02 754.337 542.375 753.938C538.156 753.275 535.342 751.705 532 749C531.134 748.319 531.134 748.319 530.25 747.625C527.184 743.639 526.75 738.928 526.743 734.052C526.737 732.878 526.73 731.704 526.723 730.495C526.727 729.214 526.73 727.934 526.733 726.614C526.729 725.233 526.724 723.852 526.719 722.471C526.707 718.68 526.707 714.89 526.709 711.099C526.71 707.009 526.699 702.919 526.689 698.829C526.673 690.818 526.667 682.807 526.666 674.796C526.665 668.284 526.661 661.773 526.655 655.261C526.637 636.799 526.628 618.337 526.629 599.875C526.629 598.88 526.63 597.885 526.63 596.859C526.63 595.863 526.63 594.867 526.63 593.84C526.631 577.689 526.612 561.538 526.583 545.388C526.555 528.803 526.541 512.219 526.543 495.635C526.543 486.324 526.538 477.014 526.516 467.703C526.498 459.777 526.494 451.85 526.507 443.924C526.514 439.88 526.514 435.837 526.497 431.794C526.481 428.09 526.484 424.387 526.501 420.683C526.506 418.713 526.49 416.743 526.475 414.773C526.533 407.225 527.012 401.164 532.483 395.452C536.187 392.194 539.319 390.851 544.188 390.688ZM562 449C562 529.52 562 610.04 562 693C567.436 688.395 567.436 688.395 572.545 683.537C573.146 682.929 573.747 682.322 574.366 681.696C575.301 680.745 575.301 680.745 576.254 679.773C577.617 678.398 578.979 677.023 580.342 675.648C582.459 673.506 584.575 671.363 586.688 669.217C588.747 667.127 590.813 665.044 592.879 662.961C593.504 662.322 594.129 661.684 594.774 661.026C600.098 655.671 604.884 651.274 612.75 650.75C617.052 650.821 620.211 651.887 624 654C627.282 657.607 629.311 661.362 631.364 665.766C631.672 666.423 631.981 667.08 632.298 667.758C633.31 669.919 634.312 672.084 635.313 674.25C636.025 675.779 636.738 677.307 637.451 678.836C643.774 692.412 649.977 706.042 656.146 719.689C659.558 727.239 662.989 734.78 666.419 742.322C668.028 745.861 669.637 749.401 671.246 752.941C671.779 754.114 672.312 755.286 672.861 756.494C673.425 757.735 673.425 757.735 674 759C678.304 758.344 681.877 756.853 685.832 755.059C686.787 754.628 686.787 754.628 687.761 754.188C689.781 753.276 691.797 752.357 693.813 751.438C695.187 750.815 696.561 750.194 697.936 749.572C701.293 748.054 704.647 746.529 708 745C707.353 740.687 705.798 737.004 703.965 733.086C703.655 732.411 703.345 731.737 703.025 731.042C702.001 728.817 700.969 726.596 699.938 724.375C699.216 722.81 698.494 721.244 697.773 719.678C696.27 716.417 694.766 713.157 693.26 709.898C691.095 705.21 688.945 700.514 686.801 695.816C686.294 694.706 686.294 694.706 685.777 693.573C684.768 691.361 683.759 689.149 682.75 686.938C679.004 678.726 675.251 670.518 671.434 662.34C670.883 661.157 670.332 659.975 669.765 658.756C668.753 656.587 667.737 654.419 666.716 652.254C658.931 635.555 658.931 635.555 661 627C663.232 621.088 666.313 618.594 672 616C675.722 615.065 679.245 614.851 683.076 614.795C684.277 614.775 685.477 614.755 686.715 614.734C688.645 614.709 688.645 614.709 690.614 614.684C691.952 614.663 693.29 614.642 694.628 614.621C698.138 614.566 701.647 614.516 705.157 614.468C708.744 614.417 712.33 614.362 715.916 614.307C722.944 614.199 729.972 614.098 737 614C736.044 612.878 735.086 611.757 734.129 610.637C733.596 610.012 733.063 609.388 732.513 608.745C727.783 603.29 722.467 598.479 717 593.781C714.21 591.296 711.621 588.63 709 585.969C707.061 584.06 705.063 582.273 703 580.5C700.211 578.103 697.58 575.62 695 573C692.44 570.4 689.832 567.937 687.063 565.562C683.252 562.289 679.749 558.766 676.223 555.191C673.573 552.579 670.789 550.167 667.965 547.746C665.185 545.275 662.609 542.618 660 539.969C658.061 538.06 656.063 536.273 654 534.5C650.489 531.482 647.247 528.266 644 524.969C642.061 523.06 640.063 521.273 638 519.5C635.211 517.103 632.58 514.62 630 512C623.321 504.774 623.321 504.774 615 500C614.74 499.446 614.479 498.891 614.211 498.32C612.378 494.808 609.539 492.513 606.625 489.875C606.048 489.337 605.47 488.8 604.875 488.246C601.553 485.195 601.553 485.195 597.711 482.883C595.417 481.699 595.081 480.3 594 478C592.336 476.31 592.336 476.31 590.375 474.75C587.447 472.276 584.685 469.737 582 467C575.534 460.163 575.534 460.163 567.836 454.934C565.459 453.725 565.074 452.378 564 450C563.34 449.67 562.68 449.34 562 449Z" fill="black"/>
</g>
<defs>
<clipPath id="clip0_176_97">
<rect width="800" height="800" fill="white"/>
</clipPath>
</defs>
</svg>
