<svg width="299" height="300" viewBox="0 0 299 300" fill="none" xmlns="http://www.w3.org/2000/svg">
<path fill-rule="evenodd" clip-rule="evenodd" d="M217.681 179.777C213.967 177.918 195.705 168.933 192.3 167.692C188.895 166.452 186.419 165.834 183.943 169.551C181.467 173.269 174.348 181.637 172.181 184.115C170.015 186.594 167.848 186.906 164.134 185.045C160.419 183.186 148.45 179.264 134.263 166.609C123.221 156.759 115.766 144.596 113.599 140.877C111.432 137.159 113.368 135.148 115.227 133.296C116.899 131.632 118.943 128.958 120.799 126.789C122.657 124.621 123.276 123.07 124.514 120.592C125.752 118.113 125.133 115.944 124.204 114.085C123.276 112.226 115.847 93.9424 112.752 86.5039C109.737 79.262 106.675 80.2428 104.395 80.1279C102.23 80.0206 99.751 79.9979 97.2756 79.9979C94.7996 79.9979 90.7748 80.9274 87.3699 84.6449C83.9656 88.3636 74.3701 97.3508 74.3701 115.633C74.3701 133.917 87.6795 151.578 89.5368 154.058C91.3941 156.537 115.729 194.055 152.991 210.144C161.852 213.972 168.772 216.257 174.166 217.969C183.064 220.796 191.161 220.397 197.562 219.441C204.698 218.375 219.538 210.456 222.634 201.78C225.728 193.102 225.728 185.665 224.8 184.115C223.872 182.566 221.396 181.637 217.681 179.777ZM149.907 272.316H149.857C127.685 272.308 105.939 266.351 86.9687 255.093L82.4564 252.416L35.6925 264.683L48.1745 219.088L45.2372 214.413C32.8684 194.741 26.3355 172.004 26.3454 148.657C26.3728 80.5321 81.8015 25.108 149.956 25.108C182.958 25.1191 213.981 37.9883 237.31 61.3434C260.638 84.698 273.478 115.742 273.465 148.756C273.437 216.886 218.009 272.316 149.907 272.316ZM255.065 43.5969C226.998 15.498 189.673 0.0163278 149.905 0C67.9667 0 1.27881 66.6838 1.24558 148.647C1.23508 174.849 8.07991 200.422 21.0896 222.967L0 300L78.8054 279.328C100.519 291.171 124.966 297.414 149.846 297.422H149.908C231.837 297.422 298.531 230.731 298.565 148.766C298.58 109.045 283.131 71.6958 255.065 43.5969Z" fill="black"/>
</svg>
