  <svg
              width="24"
              height="24"
              viewBox="0 0 24 24"
              fill="none"
              xmlns="http://www.w3.org/2000/svg"
            >
              <path
                d="M20.4615 3H3.53846C2.13651 3 1 4.09894 1 5.45455V18.5455C1 19.9011 2.13651 21 3.53846 21H20.4615C21.8635 21 23 19.9011 23 18.5455V5.45455C23 4.09894 21.8635 3 20.4615 3Z"
                stroke="#11212d"
                stroke-width="1.5"
                stroke-linejoin="round"
              />
              <path
                d="M16.5 9C17.3284 9 18 8.32843 18 7.5C18 6.67157 17.3284 6 16.5 6C15.6716 6 15 6.67157 15 7.5C15 8.32843 15.6716 9 16.5 9Z"
                stroke="#11212d"
                stroke-width="1.5"
                stroke-miterlimit="10"
              />
              <path
                d="M14.5385 16.0931L9.74394 11.4779C9.43885 11.1837 9.02879 11.013 8.59756 11.0007C8.16634 10.9884 7.74651 11.1354 7.42389 11.4116L1 16.9198M10.3077 21L16.8305 14.7094C17.1288 14.4211 17.5281 14.2508 17.9499 14.232C18.3717 14.2131 18.7856 14.347 19.1103 14.6074L23 17.7359"
                stroke="#11212d"
                stroke-width="1.5"
                stroke-linecap="round"
                stroke-linejoin="round"
              />
            </svg>